<svg xmlns="http://www.w3.org/2000/svg" viewBox="0 0 262 30"><defs><style>.prefix__b68f0540-d69e-4eb9-9899-55c62de2b277{fill:#4C4E52}</style></defs><g id="prefix__b06cdbe0-61a1-4382-a3f0-4c6d452bc1a9" data-name="Layer 2"><g id="prefix__bfd8b2ca-8009-475a-9a44-cb585d191220" data-name="Layer 1"><path d="M24 7.26V20.1a1 1 0 01-.46.77l-.42.26L20 23l-2.17 1.27-.45.25V10.63L5.3 3.7 11 .41l.52-.3a1 1 0 01.9 0l7.9 4.58L24 6.79l.05.47zm-9.34 4.88l-2.47-1.42-5.73-3.33a1 1 0 00-.9 0l-5.11 3-.45.22 8.67 5v10l5.11-2.94.46-.26a1 1 0 00.45-.77zM0 20.62l6 3.45v-6.93z" fill="#5ce500"></path><path class="prefix__b68f0540-d69e-4eb9-9899-55c62de2b277" d="M37.25 6.75H30.7v17.73h2.9v-6.95h3.67c4 0 6.17-1.94 6.17-5.46 0-1.61-.61-5.32-6.19-5.32m3.22 5.34c0 2-1 2.82-3.58 2.82h-3.27V9.35h3.67c2.15 0 3.2.9 3.18 2.74m11.62-.53l.21.1-.49 2.62-.34-.1a2.72 2.72 0 00-.84-.13c-2.71 0-2.94 2.17-2.94 4.79v5.64H45v-13h2.51V13a3.46 3.46 0 012.62-1.74 3.57 3.57 0 012 .28m6.61-.37a5.75 5.75 0 00-4.92 2.34A8 8 0 0052.47 18c0 4.12 2.45 6.76 6.23 6.76 4.6 0 6.23-3.69 6.23-6.87a7.34 7.34 0 00-1.51-4.66 5.91 5.91 0 00-4.72-2m0 11.17c-2.1 0-3.41-1.68-3.41-4.38s1.31-4.43 3.41-4.43 3.44 1.7 3.44 4.36-1.31 4.45-3.44 4.45m28.84-10.8l.21.1-.49 2.62-.35-.1a2.66 2.66 0 00-.83-.13c-2.71 0-3 2.17-3 4.79v5.64h-2.63v-13H83V13a3.46 3.46 0 012.62-1.74 3.58 3.58 0 012 .28m9.64 8.74l-.05.15a2.84 2.84 0 01-2.94 1.93c-2 0-3.35-1.35-3.48-3.54H100v-.26a5.93 5.93 0 000-1v-.24c-.13-3.65-2.51-6.12-5.91-6.12a5.57 5.57 0 00-4.7 2.26A7.81 7.81 0 0088 18c0 4 2.51 6.72 6.22 6.72a5.33 5.33 0 005.59-4.13l.08-.3h-2.7zm-6.36-3.81a3.13 3.13 0 013.1-2.92 3.08 3.08 0 013.16 2.94zm-15.34-3.93a4.57 4.57 0 00-3.46-1.35c-3.95 0-5.76 3.48-5.76 6.7s1.79 6.66 5.76 6.66a4.57 4.57 0 003.35-1.38v1.35c-.16 2.15-1.19 3.16-3.25 3.16-1.11 0-2.42-.41-2.66-1.5l-.06-.26h-2.71v.37c.33 2.29 2.34 3.71 5.31 3.71 2.6 0 4.44-1 5.34-2.83a9.25 9.25 0 00.65-3.87V11.47h-2.56v1.07zm-3.29 9.6c-.94 0-3.13-.43-3.13-4.38 0-2.6 1.22-4.21 3.19-4.21 1.53 0 3.16 1.1 3.16 4.21 0 2.75-1.22 4.38-3.22 4.38m40.17-1.59c0 2.06-1.72 4.17-5.56 4.17-3.39 0-5.41-1.48-5.69-4.15v-.27h2.64v.21c.32 1.61 1.85 1.93 3.07 1.93s2.77-.43 2.77-1.65c0-.62-.41-1.05-1.18-1.29l-1.65-.5c-1-.3-2.13-.6-2.79-.84a3.42 3.42 0 01-2.6-3.16c0-2.61 2.55-3.8 5.09-3.8 3.39 0 5.13 1.27 5.37 3.91v.28h-2.6v-.21c-.26-1.51-1.76-1.74-2.64-1.74s-2.52.13-2.52 1.37c0 .56.5 1 1.48 1.27l1.27.32c1.05.28 2.38.62 3.05.84a3.27 3.27 0 012.49 3.26m12.43 0c0 2.07-1.72 4.17-5.56 4.17-3.39 0-5.41-1.48-5.69-4.14v-.28h2.66v.19c.33 1.61 1.85 1.93 3.07 1.93s2.77-.43 2.77-1.65c0-.62-.4-1.05-1.18-1.29l-1.67-.43c-1-.3-2.13-.6-2.79-.84a3.43 3.43 0 01-2.6-3.16c0-2.61 2.56-3.8 5.09-3.8 3.39 0 5.13 1.27 5.35 3.91v.28h-2.6v-.21c-.26-1.51-1.76-1.74-2.64-1.74s-2.52.13-2.52 1.37c0 .56.5 1 1.48 1.27l1.27.32c1 .28 2.38.62 3 .84a3.3 3.3 0 012.51 3.3M127 12.82a1.85 1.85 0 110-3.69 1.86 1.86 0 011.82 1.87 1.79 1.79 0 01-1.82 1.82m0-3.39a1.54 1.54 0 101.5 1.57 1.52 1.52 0 00-1.44-1.55H127m-.22 1.89v.62h-.53V10h.9a.63.63 0 01.71.58v.11a.57.57 0 01-.37.58l.45.68h-.62l-.36-.62zm.31-.88h-.31v.43h.31a.23.23 0 00.25-.17.23.23 0 00-.21-.23M141 6.56h1v18.89h-1zM154.5 7.51h12.89v3.38h-9.17v3.61h7.44v3.38h-7.44v6.55h-3.72V7.51zM169.69 7.51h3.67v16.93h-3.67zM175.69 18a7 7 0 0114 0 6.81 6.81 0 01-7 6.75 6.75 6.75 0 01-7-6.7m10.37 0a3.45 3.45 0 00-3.46-3.58 3.31 3.31 0 00-2.38 1 3.36 3.36 0 00-.9 2.43 3.47 3.47 0 003.45 3.59 3.36 3.36 0 002.46-1 3.39 3.39 0 00.91-2.5M190.74 11.47h3.72l2.09 7.86 2.44-7.91h3.16l2.47 7.94 2.13-7.89h3.65l-4.04 13.06h-3.32l-2.49-7.96-2.53 7.96h-3.29l-3.99-13.06zM233.94 18a7 7 0 0114 0 7 7 0 01-14 .05m10.36 0a3.42 3.42 0 00-1-2.53 3.47 3.47 0 00-2.48-1 3.28 3.28 0 00-2.39 1 3.31 3.31 0 00-.91 2.43 3.47 3.47 0 003.48 3.6 3.35 3.35 0 002.45-1 3.31 3.31 0 00.91-2.5m5.76-6.54h3.67v1.89a4.61 4.61 0 013.8-2.09c2.78 0 4.4 1.85 4.4 4.82v8.39h-3.67V17.2c0-1.74-.83-2.63-2.23-2.63s-2.3.89-2.3 2.63v7.24h-3.67zm-37.45 0h3.67v1.89a4.61 4.61 0 013.8-2.09c2.78 0 4.4 1.85 4.4 4.82v8.39h-3.67V17.2c0-1.74-.83-2.63-2.22-2.63s-2.31.89-2.31 2.63v7.24h-3.67z"></path><path class="prefix__b68f0540-d69e-4eb9-9899-55c62de2b277" d="M227.67 11.23a4.51 4.51 0 00-3.67 2v3.17a2.1 2.1 0 012.21-1.8c1.39 0 2.22.89 2.22 2.63v7.24h3.63V16c0-3-1.62-4.81-4.4-4.81"></path></g></g></svg>